<?xml version="1.0" encoding="UTF-8" standalone="no"?>
<svg
   xmlns:dc="http://purl.org/dc/elements/1.1/"
   xmlns:cc="http://creativecommons.org/ns#"
   xmlns:rdf="http://www.w3.org/1999/02/22-rdf-syntax-ns#"
   xmlns:svg="http://www.w3.org/2000/svg"
   xmlns="http://www.w3.org/2000/svg"
   width="102"
   height="102"
   viewBox="0 0 102 102"
   version="1.1"
   id="svg853">
  <defs
     id="defs847" />
  <metadata
     id="metadata850">
    <rdf:RDF>
      <cc:Work
         rdf:about="">
        <dc:format>image/svg+xml</dc:format>
        <dc:type
           rdf:resource="http://purl.org/dc/dcmitype/StillImage" />
        <dc:title></dc:title>
        <cc:license
           rdf:resource="" />
      </cc:Work>
    </rdf:RDF>
  </metadata>
  <g
     style="fill:#d40000"
     id="layer1"
     transform="translate(-1216.904,-363.26999)">
    <g
       style="fill:#d40000"
       id="g2422"
       transform="matrix(0.76978596,0,0,0.76975474,632.42793,-328.80101)">
      <path
         style="fill:#d40000;fill-opacity:1;fill-rule:nonzero;stroke:none;stroke-width:1.33333337"
         d="m 783.96581,923.77489 c -10.63543,10.6458 -17.20833,25.3177 -17.20833,41.5573 0,16.2395 6.5729,30.9114 17.20833,41.55201 10.64583,10.6459 25.31771,17.2136 41.55729,17.2136 16.23958,0 30.90625,-6.5677 41.55211,-17.2136 10.6406,-10.64061 17.2135,-25.31251 17.2135,-41.55201 0,-16.2396 -6.5729,-30.9115 -17.2135,-41.5573 -10.64586,-10.6355 -25.31253,-17.2032 -41.55211,-17.2084 -16.23958,0 -30.91146,6.5729 -41.55729,17.2084 m -23.39584,41.5573 c 0,-35.8698 29.08333,-64.9532 64.95313,-64.9532 35.87501,0 64.95311,29.0834 64.95311,64.9532 0,35.87501 -29.0781,64.95311 -64.95311,64.95831 -35.8698,-0.01 -64.95313,-29.0833 -64.95313,-64.95831"
         id="path278" />
      <path
         style="fill:#d40000;fill-opacity:1;fill-rule:nonzero;stroke:none;stroke-width:1.33333337"
         d="m 813.26268,948.60819 c 0,5.8281 -3.5625,10.5521 -7.95312,10.5521 -4.39063,0 -7.95312,-4.724 -7.95312,-10.5521 0,-5.8177 3.56249,-10.5469 7.95312,-10.5469 4.39062,0 7.95312,4.7292 7.95312,10.5469"
         id="path280" />
      <path
         style="fill:#d40000;fill-opacity:1;fill-rule:nonzero;stroke:none;stroke-width:1.33333337"
         d="m 853.68456,948.60819 c 0,5.8281 -3.55729,10.5521 -7.94792,10.5521 -4.39063,0 -7.95312,-4.724 -7.95312,-10.5521 0,-5.8177 3.56249,-10.5469 7.95312,-10.5469 4.39063,0 7.94792,4.7292 7.94792,10.5469"
         id="path282" />
      <path
         style="fill:#d40000;fill-opacity:1;fill-rule:nonzero;stroke:none;stroke-width:1.33333337"
         d="m 825.5231,983.99359 c -10.35938,-0.073 -18.52605,5.0469 -23.20833,10.2448 -4.91147,5.3542 -6.34896,9.42191 -7.32813,9.84381 0,-0.5209 0.3177,-5.59901 5.18229,-12.21361 4.54167,-6.3073 13.69271,-12.6562 25.35417,-12.5677 11.66667,-0.089 20.8125,6.2604 25.35417,12.5677 4.86978,6.6146 5.18229,11.69271 5.18229,12.21361 -0.97917,-0.4219 -2.41667,-4.48961 -7.32812,-9.84381 -4.68229,-5.1979 -12.84896,-10.3177 -23.20834,-10.2448"
         id="path284" />
    </g>
  </g>
</svg>
