<?xml version="1.0" encoding="UTF-8" standalone="no"?>
<svg
   xmlns:dc="http://purl.org/dc/elements/1.1/"
   xmlns:cc="http://creativecommons.org/ns#"
   xmlns:rdf="http://www.w3.org/1999/02/22-rdf-syntax-ns#"
   xmlns:svg="http://www.w3.org/2000/svg"
   xmlns="http://www.w3.org/2000/svg"
   width="102"
   height="102"
   viewBox="0 0 102 102"
   version="1.1"
   id="svg853">
  <defs
     id="defs847" />
  <metadata
     id="metadata850">
    <rdf:RDF>
      <cc:Work
         rdf:about="">
        <dc:format>image/svg+xml</dc:format>
        <dc:type
           rdf:resource="http://purl.org/dc/dcmitype/StillImage" />
        <dc:title></dc:title>
        <cc:license
           rdf:resource="" />
      </cc:Work>
    </rdf:RDF>
  </metadata>
  <g
     style="fill:#ff9955"
     id="layer1"
     transform="translate(-754.04427,108.16109)">
    <g
       style="fill:#ff9955"
       id="g2428"
       transform="matrix(0.76975503,0,0,0.76978555,629.97741,-800.25983)">
      <path
         style="fill:#ff9955;fill-opacity:1;fill-rule:nonzero;stroke:none;stroke-width:1.33333337"
         d="m 185.87723,923.77489 c -10.64062,10.6458 -17.20833,25.3177 -17.21354,41.5573 0.005,16.2395 6.57292,30.9114 17.21354,41.55201 10.64584,10.6407 25.31251,17.2084 41.55208,17.2136 16.23959,-0.01 30.91147,-6.5729 41.5521,-17.2136 10.64583,-10.64061 17.21353,-25.31251 17.21353,-41.55201 0,-16.2396 -6.5677,-30.9115 -17.21353,-41.5573 -10.64063,-10.6355 -25.31251,-17.2084 -41.5521,-17.2084 -16.23957,0 -30.90624,6.5729 -41.55208,17.2084 m -23.40104,41.5573 c 0,-35.8698 29.08334,-64.9532 64.95312,-64.9532 35.87501,0 64.95314,29.0834 64.95834,64.9532 -0.005,35.86971 -29.08333,64.95311 -64.95834,64.95311 -35.86978,0 -64.95312,-29.0834 -64.95312,-64.95311"
         id="path286" />
      <path
         style="fill:#ff9955;fill-opacity:1;fill-rule:nonzero;stroke:none;stroke-width:1.33333337"
         d="m 215.1689,948.60819 c 0,5.8281 -3.56249,10.5521 -7.95312,10.5521 -4.39063,0 -7.95313,-4.724 -7.95313,-10.5521 0,-5.8229 3.5625,-10.5469 7.95313,-10.5469 4.39063,0 7.95312,4.724 7.95312,10.5469"
         id="path288" />
      <path
         style="fill:#ff9955;fill-opacity:1;fill-rule:nonzero;stroke:none;stroke-width:1.33333337"
         d="m 255.59598,948.60819 c 0,5.8281 -3.56249,10.5521 -7.95312,10.5521 -4.39062,0 -7.94792,-4.724 -7.94792,-10.5521 0,-5.8229 3.5573,-10.5469 7.94792,-10.5469 4.39063,0 7.95312,4.724 7.95312,10.5469"
         id="path290" />
      <path
         style="fill:#ff9955;fill-opacity:1;fill-rule:nonzero;stroke:none;stroke-width:1.33333337"
         d="m 227.42931,993.21239 c -19.51562,0.2291 -28.15624,8.86981 -28.66666,8.97391 -0.49479,-0.6979 2.63542,-5.37501 7.375,-8.27601 4.77084,-2.9167 10.40625,-5.2136 21.29166,-5.2292 10.88543,0.016 16.52605,2.3125 21.29689,5.2292 4.73958,2.901 7.875,7.57811 7.375,8.27601 -0.51042,-0.1041 -9.15626,-8.74481 -28.67189,-8.97391"
         id="path292" />
    </g>
  </g>
</svg>
