<?xml version="1.0" encoding="UTF-8" standalone="no"?>
<svg
   xmlns:dc="http://purl.org/dc/elements/1.1/"
   xmlns:cc="http://creativecommons.org/ns#"
   xmlns:rdf="http://www.w3.org/1999/02/22-rdf-syntax-ns#"
   xmlns:svg="http://www.w3.org/2000/svg"
   xmlns="http://www.w3.org/2000/svg"
   width="102"
   height="102"
   viewBox="0 0 102 102"
   version="1.1"
   id="svg853">
  <defs
     id="defs847" />
  <metadata
     id="metadata850">
    <rdf:RDF>
      <cc:Work
         rdf:about="">
        <dc:format>image/svg+xml</dc:format>
        <dc:type
           rdf:resource="http://purl.org/dc/dcmitype/StillImage" />
        <dc:title></dc:title>
        <cc:license
           rdf:resource="" />
      </cc:Work>
    </rdf:RDF>
  </metadata>
  <g
     style="fill:#ffcc00"
     id="layer1"
     transform="translate(-502.61831,16.732591)">
    <g
       style="fill:#ffcc00"
       id="g2404"
       transform="matrix(0.76978596,0,0,0.76978584,148.24809,-253.47519)">
      <path
         style="fill:#ffcc00;fill-opacity:1;fill-rule:nonzero;stroke:none;stroke-width:1.33333337"
         d="m 485.04913,332.24356 c -10.64063,10.64584 -17.20834,25.31251 -17.21355,41.55209 0.005,16.23958 6.57292,30.91146 17.21355,41.55208 10.64062,10.64063 25.31249,17.21354 41.55208,17.21354 16.23959,0 30.91145,-6.57291 41.55208,-17.21354 10.64063,-10.64062 17.21355,-25.3125 17.21355,-41.55208 0,-16.23958 -6.57292,-30.90625 -17.21355,-41.55209 -10.64063,-10.64063 -25.31249,-17.21354 -41.55208,-17.21354 -16.23959,0 -30.91146,6.57291 -41.55208,17.21354 m -23.40104,41.55209 c 0,-35.875 29.08333,-64.94792 64.95312,-64.95313 35.875,0.005 64.95312,29.07813 64.95312,64.95313 0,35.875 -29.07812,64.95313 -64.95312,64.95313 -35.86979,0 -64.95312,-29.07813 -64.95312,-64.95313"
         id="path128" />
      <path
         style="fill:#ffcc00;fill-opacity:1;fill-rule:nonzero;stroke:none;stroke-width:1.33333337"
         d="m 513.98142,357.07689 c 0,6.56251 -3.66666,11.88543 -8.1875,11.88543 -4.51563,0 -8.1823,-5.32292 -8.1823,-11.88543 0,-6.56771 3.66667,-11.89063 8.1823,-11.89063 4.52084,0 8.1875,5.32292 8.1875,11.89063"
         id="path130" />
      <path
         style="fill:#ffcc00;fill-opacity:1;fill-rule:nonzero;stroke:none;stroke-width:1.33333337"
         d="m 555.5908,357.07689 c 0,6.56251 -3.66147,11.88543 -8.1823,11.88543 -4.51562,0 -8.18229,-5.32292 -8.18229,-11.88543 0,-6.56771 3.66667,-11.89063 8.18229,-11.89063 4.52083,0 8.1823,5.32292 8.1823,11.89063"
         id="path132" />
      <path
         style="fill:#ffcc00;fill-opacity:1;fill-rule:nonzero;stroke:none;stroke-width:1.33333337"
         d="m 497.62725,402.85815 c -1.70312,0 -3.08855,-1.38542 -3.08855,-3.09375 0,-1.70833 1.38543,-3.08855 3.08855,-3.08855 h 57.94271 c 1.70833,0 3.09374,1.38022 3.09374,3.08855 0,1.70833 -1.38541,3.09375 -3.09374,3.09375 z m 0,0"
         id="path134" />
    </g>
  </g>
</svg>
