<?xml version="1.0" encoding="UTF-8" standalone="no"?>
<svg
   xmlns:dc="http://purl.org/dc/elements/1.1/"
   xmlns:cc="http://creativecommons.org/ns#"
   xmlns:rdf="http://www.w3.org/1999/02/22-rdf-syntax-ns#"
   xmlns:svg="http://www.w3.org/2000/svg"
   xmlns="http://www.w3.org/2000/svg"
   width="102"
   height="102"
   viewBox="0 0 102 102"
   version="1.1"
   id="svg853">
  <defs
     id="defs847" />
  <metadata
     id="metadata850">
    <rdf:RDF>
      <cc:Work
         rdf:about="">
        <dc:format>image/svg+xml</dc:format>
        <dc:type
           rdf:resource="http://purl.org/dc/dcmitype/StillImage" />
        <dc:title></dc:title>
        <cc:license
           rdf:resource="" />
      </cc:Work>
    </rdf:RDF>
  </metadata>
  <g
     style="fill:#abc837"
     id="layer1"
     transform="translate(-1245.4755,-243.26998)">
    <g
       style="fill:#abc837"
       id="g2410"
       transform="matrix(0.76978596,0,0,0.76975539,1006.1562,-104.74904)">
      <path
         style="fill:#abc837;fill-opacity:1;fill-rule:nonzero;stroke:none;stroke-width:1.33333337"
         d="m 335.59079,476.81649 c -10.64584,10.6458 -17.21355,25.3177 -17.21355,41.5573 0,16.2344 6.56771,30.9062 17.21355,41.5521 10.64062,10.6406 25.31249,17.2135 41.55208,17.2135 16.23959,0 30.91145,-6.5729 41.55208,-17.2135 10.64063,-10.6459 17.21355,-25.3177 17.21875,-41.5521 -0.005,-16.2396 -6.57812,-30.9115 -17.21875,-41.5573 -10.64063,-10.6406 -25.31249,-17.2135 -41.55208,-17.2135 -16.23959,0 -30.91146,6.5729 -41.55208,17.2135 m -23.40104,41.5573 c 0,-35.875 29.07812,-64.9531 64.95312,-64.9583 35.875,0 64.95312,29.0833 64.95312,64.9583 0,35.8698 -29.07812,64.9531 -64.95312,64.9531 -35.875,0 -64.95312,-29.0833 -64.95312,-64.9531"
         id="path112" />
      <path
         style="fill:#abc837;fill-opacity:1;fill-rule:nonzero;stroke:none;stroke-width:1.33333337"
         d="m 364.88246,501.64979 c 0,5.823 -3.56251,10.5469 -7.95314,10.5469 -4.39063,0 -7.95312,-4.7239 -7.95312,-10.5469 0,-5.8281 3.56249,-10.552 7.95312,-10.552 4.39063,0 7.95314,4.7239 7.95314,10.552"
         id="path114" />
      <path
         style="fill:#abc837;fill-opacity:1;fill-rule:nonzero;stroke:none;stroke-width:1.33333337"
         d="m 405.31475,501.64979 c 0,5.823 -3.56251,10.5469 -7.95313,10.5469 -4.39063,0 -7.95312,-4.7239 -7.95312,-10.5469 0,-5.8281 3.56249,-10.552 7.95312,-10.552 4.39062,0 7.95313,4.7239 7.95313,10.552"
         id="path116" />
      <path
         style="fill:#abc837;fill-opacity:1;fill-rule:nonzero;stroke:none;stroke-width:1.33333337"
         d="m 377.14287,560.42069 c -23.73438,-0.3177 -33.71355,-20.7344 -33.47396,-22.5209 1.51562,-0.9323 12.5625,13.4896 33.47396,13.5782 20.91145,-0.088 31.96355,-14.5105 33.47916,-13.5782 0.23959,1.7865 -9.73437,22.2032 -33.47916,22.5209"
         id="path118" />
    </g>
  </g>
</svg>
