<?xml version="1.0" encoding="UTF-8" standalone="no"?>
<svg
   xmlns:dc="http://purl.org/dc/elements/1.1/"
   xmlns:cc="http://creativecommons.org/ns#"
   xmlns:rdf="http://www.w3.org/1999/02/22-rdf-syntax-ns#"
   xmlns:svg="http://www.w3.org/2000/svg"
   xmlns="http://www.w3.org/2000/svg"
   id="svg853"
   version="1.1"
   viewBox="0 0 102 102"
   height="102"
   width="102">
  <defs
     id="defs847" />
  <metadata
     id="metadata850">
    <rdf:RDF>
      <cc:Work
         rdf:about="">
        <dc:format>image/svg+xml</dc:format>
        <dc:type
           rdf:resource="http://purl.org/dc/dcmitype/StillImage" />
        <dc:title></dc:title>
        <cc:license
           rdf:resource="" />
      </cc:Work>
    </rdf:RDF>
  </metadata>
  <g
     transform="translate(-125.28434,122.06009)"
     id="layer1">
    <g
       style="fill:#2ca05a"
       id="g2651">
      <path
         id="path52"
         d="m 144.29413,-103.0503 c -8.19101,8.195005 -13.24674,19.489204 -13.24674,31.990211 0,12.496989 5.05573,23.791197 13.24674,31.986206 8.195,8.191007 19.48921,13.250748 31.9862,13.250748 12.50501,0 23.7952,-5.059741 31.99022,-13.250748 8.191,-8.195009 13.24673,-19.489217 13.25073,-31.986206 -0.004,-12.501007 -5.05973,-23.795206 -13.25073,-31.990211 -8.19502,-8.19101 -19.48521,-13.24674 -31.99022,-13.24674 -12.49699,0 -23.7912,5.05573 -31.9862,13.24674 m -18.00979,31.990211 c 0,-27.616069 22.38393,-50.000001 49.99599,-50.000001 27.61607,0 49.99999,22.383932 50.00401,50.000001 -0.004,27.61206 -22.38794,49.995994 -50.00401,49.999997 -27.61206,-0.0038 -49.99599,-22.387937 -49.99599,-49.999997"
         style="fill:#2ca05a;fill-opacity:1;fill-rule:nonzero;stroke:none;stroke-width:1.02638113" />
      <path
         id="path58"
         d="m 176.28434,-50.94141 c 18.14209,-0.0281 28.02903,-6.936096 28.02903,-6.936096 0,10.344 -11.52274,23.310089 -28.02903,23.366206 -16.5063,-0.05612 -28.03303,-13.022206 -28.03303,-23.366206 0,0 9.88693,6.90803 28.03303,6.936096"
         style="fill:#2ca05a;fill-opacity:1;fill-rule:nonzero;stroke:none;stroke-width:1.02638113" />
      <path
         id="path114"
         d="m 166.84644,-83.93148 c 0,4.482285 -2.74237,8.118533 -6.12221,8.118533 -3.37985,0 -6.1222,-3.636248 -6.1222,-8.118533 0,-4.486212 2.74235,-8.122459 6.1222,-8.122459 3.37984,0 6.12221,3.636247 6.12221,8.122459"
         style="fill:#2ca05a;fill-opacity:1;fill-rule:nonzero;stroke:none;stroke-width:1.02636099" />
      <path
         id="path116"
         d="m 197.97065,-83.93148 c 0,4.482285 -2.74237,8.118533 -6.1222,8.118533 -3.37985,0 -6.1222,-3.636248 -6.1222,-8.118533 0,-4.486212 2.74235,-8.122459 6.1222,-8.122459 3.37983,0 6.1222,3.636247 6.1222,8.122459"
         style="fill:#2ca05a;fill-opacity:1;fill-rule:nonzero;stroke:none;stroke-width:1.02636099" />
    </g>
  </g>
</svg>
